<svg xmlns="http://www.w3.org/2000/svg">
    <symbol id="direction" viewBox="0 0 284.301 284.301">
        <title>direction</title>
        <path d="M282.543,137.908L146.393,1.758c-2.342-2.344-6.143-2.344-8.484,0L1.758,137.908c-2.344,2.343-2.344,6.142,0,8.484 l136.15,136.15c1.171,1.172,2.707,1.758,4.242,1.758s3.071-0.586,4.242-1.758l98.15-98.15c2.344-2.343,2.344-6.142,0-8.484 c-2.342-2.344-6.143-2.344-8.484,0l-93.908,93.907L14.485,142.15L142.15,14.485l131.908,131.907c2.342,2.344,6.143,2.344,8.484,0 C284.887,144.05,284.887,140.251,282.543,137.908z"/>
        <path d="M166.62,143.662c1.171,1.172,2.707,1.758,4.242,1.758s3.071-0.586,4.242-1.758l18.385-18.385 c2.344-2.343,2.344-6.142,0-8.484l-18.385-18.385c-2.342-2.344-6.143-2.344-8.484,0c-2.344,2.343-2.344,6.142,0,8.484l8.142,8.143 h-68.708c-3.313,0-6,2.687-6,6v79c0,3.313,2.687,6,6,6s6-2.687,6-6v-73h62.708l-8.142,8.143 C164.276,137.521,164.276,141.319,166.62,143.662z"/>
    </symbol>
    <symbol id="pin" viewBox="0 0 410.344 410.344">
        <title>pin</title>
        <g>
            <g>
                <path d="M205.212,0C119.37,0.088,49.816,69.678,49.772,155.52c0,83.52,143.36,245.36,149.44,252.16 c2.947,3.292,8.005,3.571,11.297,0.624c0.219-0.196,0.427-0.404,0.624-0.624c6.08-6.88,149.44-168.64,149.44-252.16 C360.528,69.709,291.022,0.132,205.212,0z M205.212,390.16c-27.36-32-139.44-166.32-139.44-234.72 C65.772,78.429,128.201,16,205.212,16s139.44,62.429,139.44,139.44C344.652,223.84,232.572,358.32,205.212,390.16z"/>
            </g>
        </g>
        <g>
            <g>
                <path d="M208.012,78c-46.524,0.044-84.204,37.796-84.16,84.32c0.044,46.524,37.796,84.204,84.32,84.16 c46.493-0.044,84.16-37.747,84.16-84.24C292.244,115.721,254.531,78.044,208.012,78z M208.012,230.56 c-37.688,0-68.24-30.552-68.24-68.24s30.552-68.24,68.24-68.24s68.24,30.552,68.24,68.24 C276.208,199.99,245.681,230.516,208.012,230.56z"/>
            </g>
        </g>
    </symbol>
</svg>